<svg width="64" height="64" viewBox="0 0 64 64" fill="none" xmlns="http://www.w3.org/2000/svg">
<path fill-rule="evenodd" clip-rule="evenodd" d="M14 19C14 18.4477 14.4477 18 15 18H49C49.5523 18 50 18.4477 50 19C50 19.5523 49.5523 20 49 20H15C14.4477 20 14 19.5523 14 19Z" fill="black"/>
<path fill-rule="evenodd" clip-rule="evenodd" d="M14 32C14 31.4477 14.4477 31 15 31H49C49.5523 31 50 31.4477 50 32C50 32.5523 49.5523 33 49 33H15C14.4477 33 14 32.5523 14 32Z" fill="black"/>
<path fill-rule="evenodd" clip-rule="evenodd" d="M14 45C14 44.4477 14.4477 44 15 44H49C49.5523 44 50 44.4477 50 45C50 45.5523 49.5523 46 49 46H15C14.4477 46 14 45.5523 14 45Z" fill="black"/>
</svg>
